<mxfile host="65bd71144e">
    <diagram id="GIKGYp4Zu2xnVwS3xugh" name="Pagina-1">
        <mxGraphModel dx="1302" dy="723" grid="1" gridSize="10" guides="1" tooltips="1" connect="1" arrows="1" fold="1" page="1" pageScale="1" pageWidth="827" pageHeight="1169" math="0" shadow="0">
            <root>
                <mxCell id="0"/>
                <mxCell id="1" parent="0"/>
                <mxCell id="7" value="" style="rounded=1;whiteSpace=wrap;html=1;fontSize=15;container=0;labelPosition=center;verticalLabelPosition=middle;align=center;verticalAlign=middle;" vertex="1" parent="1">
                    <mxGeometry x="20" y="90" width="740" height="260" as="geometry"/>
                </mxCell>
                <mxCell id="63" style="html=1;entryX=0;entryY=0;entryDx=0;entryDy=0;fontSize=15;exitX=1;exitY=1;exitDx=0;exitDy=0;" edge="1" parent="1" source="80" target="10">
                    <mxGeometry relative="1" as="geometry">
                        <mxPoint x="180" y="155.81999999999994" as="sourcePoint"/>
                    </mxGeometry>
                </mxCell>
                <mxCell id="62" style="html=1;entryX=0;entryY=0;entryDx=0;entryDy=0;fontSize=15;exitX=1;exitY=1;exitDx=0;exitDy=0;" edge="1" parent="1" source="10" target="12">
                    <mxGeometry relative="1" as="geometry"/>
                </mxCell>
                <mxCell id="10" value="Mutazione" style="rounded=0;whiteSpace=wrap;html=1;fontSize=15;container=0;fillColor=#fad7ac;strokeColor=#b46504;" vertex="1" parent="1">
                    <mxGeometry x="231.25" y="194.02" width="128.75" height="55.98" as="geometry"/>
                </mxCell>
                <mxCell id="88" style="edgeStyle=none;html=1;labelBackgroundColor=none;fontSize=15;startArrow=none;startFill=0;endArrow=classic;endFill=1;" edge="1" parent="1" source="12">
                    <mxGeometry relative="1" as="geometry">
                        <mxPoint x="465.005" y="380" as="targetPoint"/>
                    </mxGeometry>
                </mxCell>
                <mxCell id="12" value="Valutazione" style="rounded=0;whiteSpace=wrap;html=1;fontSize=15;container=0;fillColor=#fad9d5;strokeColor=#ae4132;" vertex="1" parent="1">
                    <mxGeometry x="400.63" y="280" width="128.75" height="55.98" as="geometry"/>
                </mxCell>
                <mxCell id="51" value="Pipeline" style="text;html=1;strokeColor=none;fillColor=none;align=center;verticalAlign=middle;whiteSpace=wrap;rounded=0;fontSize=15;" vertex="1" parent="1">
                    <mxGeometry x="650" y="120" width="70" height="20" as="geometry"/>
                </mxCell>
                <mxCell id="64" style="html=1;entryX=0;entryY=0;entryDx=0;entryDy=0;fontSize=15;exitX=1;exitY=1;exitDx=0;exitDy=0;" edge="1" parent="1" source="65" target="83">
                    <mxGeometry relative="1" as="geometry">
                        <mxPoint x="402.5000000000002" y="194.01999999999998" as="targetPoint"/>
                    </mxGeometry>
                </mxCell>
                <mxCell id="71" style="edgeStyle=none;html=1;fontSize=15;startArrow=classic;startFill=1;endArrow=none;endFill=0;" edge="1" parent="1" source="65">
                    <mxGeometry relative="1" as="geometry">
                        <mxPoint x="294" y="70" as="targetPoint"/>
                    </mxGeometry>
                </mxCell>
                <mxCell id="65" value="Crossover" style="rounded=0;whiteSpace=wrap;html=1;fontSize=15;container=0;fillColor=#bac8d3;strokeColor=#23445d;" vertex="1" parent="1">
                    <mxGeometry x="230" y="110" width="128.75" height="55.98" as="geometry"/>
                </mxCell>
                <mxCell id="67" style="html=1;entryX=0;entryY=0;entryDx=0;entryDy=0;fontSize=15;exitX=1;exitY=1;exitDx=0;exitDy=0;" edge="1" parent="1" target="87" source="83">
                    <mxGeometry relative="1" as="geometry">
                        <mxPoint x="527.5" y="245.9899999999999" as="sourcePoint"/>
                        <mxPoint x="600" y="289.99999999999994" as="targetPoint"/>
                    </mxGeometry>
                </mxCell>
                <mxCell id="69" style="edgeStyle=none;html=1;fontSize=15;exitX=0.5;exitY=1;exitDx=0;exitDy=0;" edge="1" parent="1" source="87">
                    <mxGeometry relative="1" as="geometry">
                        <mxPoint x="634" y="380" as="targetPoint"/>
                        <mxPoint x="634.26" y="349.99999999999994" as="sourcePoint"/>
                    </mxGeometry>
                </mxCell>
                <mxCell id="72" value="" style="shape=flexArrow;endArrow=classic;html=1;fontSize=15;width=20;endSize=14.951724137931034;fillColor=#6d8764;strokeColor=#3A5431;" edge="1" parent="1">
                    <mxGeometry width="50" height="50" relative="1" as="geometry">
                        <mxPoint x="20" y="400" as="sourcePoint"/>
                        <mxPoint x="760" y="400" as="targetPoint"/>
                    </mxGeometry>
                </mxCell>
                <mxCell id="75" value="Tempo" style="edgeLabel;html=1;align=center;verticalAlign=middle;resizable=0;points=[];fontSize=15;labelBorderColor=none;labelBackgroundColor=none;" vertex="1" connectable="0" parent="72">
                    <mxGeometry x="0.0766" y="-3" relative="1" as="geometry">
                        <mxPoint x="-24" y="-3" as="offset"/>
                    </mxGeometry>
                </mxCell>
                <mxCell id="76" style="html=1;entryX=0;entryY=0;entryDx=0;entryDy=0;fontSize=15;exitX=1;exitY=1;exitDx=0;exitDy=0;" edge="1" parent="1" source="81" target="82">
                    <mxGeometry relative="1" as="geometry">
                        <mxPoint x="525" y="155.81999999999994" as="sourcePoint"/>
                        <mxPoint x="602.5000000000002" y="194.01999999999998" as="targetPoint"/>
                    </mxGeometry>
                </mxCell>
                <mxCell id="77" style="edgeStyle=none;html=1;fontSize=15;startArrow=classic;startFill=1;endArrow=none;endFill=0;" edge="1" parent="1">
                    <mxGeometry relative="1" as="geometry">
                        <mxPoint x="465" y="70" as="targetPoint"/>
                        <mxPoint x="465" y="110" as="sourcePoint"/>
                    </mxGeometry>
                </mxCell>
                <mxCell id="85" style="edgeStyle=none;html=1;labelBackgroundColor=none;fontSize=15;startArrow=classic;startFill=1;endArrow=none;endFill=0;" edge="1" parent="1" source="80">
                    <mxGeometry relative="1" as="geometry">
                        <mxPoint x="114.375" y="70" as="targetPoint"/>
                    </mxGeometry>
                </mxCell>
                <mxCell id="80" value="Crossover" style="rounded=0;whiteSpace=wrap;html=1;fontSize=15;container=0;fillColor=#bac8d3;strokeColor=#23445d;" vertex="1" parent="1">
                    <mxGeometry x="50" y="110" width="128.75" height="55.98" as="geometry"/>
                </mxCell>
                <mxCell id="81" value="Crossover" style="rounded=0;whiteSpace=wrap;html=1;fontSize=15;container=0;fillColor=#bac8d3;strokeColor=#23445d;" vertex="1" parent="1">
                    <mxGeometry x="400.63" y="110" width="128.75" height="55.98" as="geometry"/>
                </mxCell>
                <mxCell id="82" value="Mutazione" style="rounded=0;whiteSpace=wrap;html=1;fontSize=15;container=0;fillColor=#fad7ac;strokeColor=#b46504;" vertex="1" parent="1">
                    <mxGeometry x="570" y="194.02" width="128.75" height="55.98" as="geometry"/>
                </mxCell>
                <mxCell id="83" value="Mutazione" style="rounded=0;whiteSpace=wrap;html=1;fontSize=15;container=0;fillColor=#fad7ac;strokeColor=#b46504;" vertex="1" parent="1">
                    <mxGeometry x="400.63" y="194.02" width="128.75" height="55.98" as="geometry"/>
                </mxCell>
                <mxCell id="87" value="Valutazione" style="rounded=0;whiteSpace=wrap;html=1;fontSize=15;container=0;fillColor=#fad9d5;strokeColor=#ae4132;" vertex="1" parent="1">
                    <mxGeometry x="570" y="280" width="128.75" height="55.98" as="geometry"/>
                </mxCell>
            </root>
        </mxGraphModel>
    </diagram>
</mxfile>